<?xml version="1.0" encoding="utf-8"?>
<!-- Generator: Adobe Illustrator 24.3.0, SVG Export Plug-In . SVG Version: 6.00 Build 0)  -->
<svg version="1.1" id="Layer_1" xmlns="http://www.w3.org/2000/svg" xmlns:xlink="http://www.w3.org/1999/xlink" x="0px" y="0px"
	 viewBox="0 0 550 180" style="enable-background:new 0 0 550 180;" xml:space="preserve">
<style type="text/css">
	.st0{display:none;}
	.st1{display:inline;}
	.st2{fill:url(#SVGID_1_);}
	.st3{fill:#FFFFFF;}
	.st4{fill:#B2B2B2;}
	.st5{fill:#9D9D9C;}
</style>
<g id="Layer_1_1_" class="st0">
	<g class="st1">
		
			<linearGradient id="SVGID_1_" gradientUnits="userSpaceOnUse" x1="11.0402" y1="119.668" x2="133.7915" y2="68.4486" gradientTransform="matrix(1 0 0 -1 0 182)">
			<stop  offset="6.990000e-02" style="stop-color:#009FE3"/>
			<stop  offset="0.1255" style="stop-color:#098CE3"/>
			<stop  offset="0.2642" style="stop-color:#1D61E2"/>
			<stop  offset="0.4054" style="stop-color:#2D3EE1"/>
			<stop  offset="0.5475" style="stop-color:#3A23E1"/>
			<stop  offset="0.6909" style="stop-color:#430FE0"/>
			<stop  offset="0.8366" style="stop-color:#4804E0"/>
			<stop  offset="0.9876" style="stop-color:#4A00E0"/>
		</linearGradient>
		<path class="st2" d="M136.3,83.9c3.4,0,6.1,2.7,6.1,6.1l0,0c0.1,1.4,0.1,2.5,0.1,3.5c0,7-0.5,13.4-1.6,19.2
			c-1.1,5.8-2.7,10.9-4.9,15.3c-6.4,13.4-14.6,23.3-24.5,29.9s-21.8,9.8-35.8,9.8c-10.2,0-19.6-1.9-28.2-5.6
			c-8.7-3.8-16.2-9.2-22.7-16.3c-6.6-7.4-11.6-15.8-14.9-25.1c-3.3-9.3,15-19.7,15-31.1S6.6,67.5,10,58c3.3-9.5,8.3-17.9,14.9-25.3
			c6.3-7.1,13.8-12.4,22.5-16c8.7-3.6,18.5-5.4,29.2-5.4c12,0,22.5,2.4,31.6,7.3c7.4,4,14.2,9.7,20.2,17.1c2.3,2.8,1.8,6.9-1.1,9
			l-14.3,10.9c-2.9,2.2-7,1.6-9.2-1.2c-2.9-3.9-6.2-7-9.8-9.2c-5.1-3.2-11-4.7-17.8-4.7c-11.3,0-20.2,4.4-26.9,13.3
			c-6.7,8.8,11.9,20.8,11.9,35.7c0,15-18.5,26.9-11.6,35.8s16.1,13.4,27.5,13.4c8.7,0,16-2.7,21.9-8c3.7-3.4,6.3-7.3,7.9-11.7
			c1.4-4.2-1.7-8.5-6.1-8.5H79.7c-3.6,0-6.5-2.9-6.5-6.4V90.3c0-3.5,2.9-6.4,6.5-6.4L136.3,83.9L136.3,83.9z"/>
	</g>
	<g class="st1">
		<path d="M237.5,44.7l-9.1,9c-5.8-6.1-12.5-9.2-20.2-9.2c-6.7,0-12.4,2.2-16.9,6.7c-4.5,4.5-6.8,9.9-6.8,16.2
			c0,6.6,2.4,12.2,7.1,16.8c4.7,4.6,10.5,6.9,17.4,6.9c4.5,0,8.3-0.9,11.4-2.8s5.6-4.8,7.5-8.9h-19.8V67.2h34.3l0.1,2.9
			c0,6-1.6,11.6-4.6,17c-3.1,5.3-7.1,9.4-12,12.2c-4.9,2.8-10.7,4.2-17.3,4.2c-7.1,0-13.4-1.5-19-4.6s-9.9-7.5-13.2-13.2
			c-3.2-5.7-4.9-11.8-4.9-18.4c0-9,3-16.9,9-23.6c7.1-8,16.3-11.9,27.7-11.9c5.9,0,11.5,1.1,16.7,3.3C229,37,233.3,40.2,237.5,44.7z
			"/>
		<path d="M252.9,51.4h12.7v24.3c0,4.7,0.3,8,1,9.9c0.6,1.8,1.7,3.3,3.1,4.3c1.5,1,3.2,1.5,5.4,1.5s3.9-0.5,5.4-1.5
			c1.5-1,2.6-2.5,3.3-4.4c0.5-1.4,0.8-4.6,0.8-9.3V51.4h12.7v21.4c0,8.8-0.7,14.8-2.1,18.1c-1.7,4-4.2,7-7.5,9.1s-7.5,3.2-12.6,3.2
			c-5.5,0-10-1.2-13.4-3.7s-5.8-5.9-7.2-10.3c-1-3.1-1.5-8.6-1.5-16.7L252.9,51.4L252.9,51.4z"/>
		<path d="M309.9,51.4h12.7v5.2c2.9-2.4,5.5-4.1,7.8-5s4.7-1.4,7.2-1.4c5,0,9.3,1.8,12.8,5.2c2.9,3,4.4,7.4,4.4,13.2v33.3h-12.5
			V79.8c0-6-0.3-10-0.8-12c-0.5-2-1.5-3.5-2.8-4.5c-1.4-1-3-1.5-5-1.5c-2.6,0-4.8,0.9-6.6,2.6c-1.8,1.7-3.1,4.1-3.8,7.1
			c-0.4,1.6-0.6,5-0.6,10.2v20.3h-12.7L309.9,51.4L309.9,51.4z"/>
		<path d="M404.2,51.4h12.7v50.5h-12.7v-5.3c-2.5,2.3-5,4-7.5,5.1s-5.2,1.6-8.1,1.6c-6.5,0-12.2-2.5-17-7.6
			c-4.8-5.1-7.2-11.3-7.2-18.9c0-7.8,2.3-14.2,6.9-19.2c4.6-5,10.2-7.5,16.8-7.5c3,0,5.9,0.6,8.5,1.7c2.7,1.1,5.1,2.9,7.4,5.2
			L404.2,51.4L404.2,51.4z M390.9,61.8c-3.9,0-7.2,1.4-9.8,4.1s-3.9,6.3-3.9,10.7c0,4.4,1.3,7.9,4,10.8c2.6,2.8,5.9,4.2,9.7,4.2
			c4,0,7.3-1.4,9.9-4.2c2.6-2.8,3.9-6.4,3.9-10.9c0-4.4-1.3-7.9-3.9-10.7C398.3,63.1,394.9,61.8,390.9,61.8z"/>
		<path d="M430.6,33.6h13v44.1c0,3.8,0.3,6.5,1,8.1c0.7,1.6,1.8,2.8,3.3,3.8s3.4,1.4,5.5,1.4c2.3,0,4.3-0.5,5.9-1.6
			c1.6-1.1,2.8-2.4,3.4-4s1-4.7,1-9.3V33.6h13v40.7c0,6.9-0.4,11.6-1.2,14.3s-2.2,5.2-4.4,7.7c-2.2,2.5-4.7,4.3-7.5,5.5
			c-2.8,1.2-6.1,1.8-9.9,1.8c-5,0-9.2-1.1-12.9-3.4c-3.7-2.3-6.3-5.1-7.9-8.5s-2.4-9.2-2.4-17.3L430.6,33.6L430.6,33.6z"/>
		<path d="M491,33.6h12.9v68.3H491V33.6z"/>
	</g>
	<g class="st1">
		<path d="M176.6,110.1h24.7v4.8h-19.8v15.3h19.8v4.8h-19.8v24.2h-4.9V110.1z"/>
		<path d="M207.3,122.8h4.8v5.3c1.4-2.1,2.9-3.7,4.5-4.7c1.6-1,3.2-1.6,4.9-1.6c1.3,0,2.7,0.4,4.1,1.2l-2.4,3.9
			c-1-0.4-1.8-0.6-2.5-0.6c-1.6,0-3.1,0.6-4.5,1.9c-1.4,1.3-2.6,3.3-3.3,6c-0.6,2.1-0.9,6.3-0.9,12.6v12.3h-4.8V122.8z"/>
		<path d="M266,122.8v36.4h-4.6V153c-2,2.4-4.2,4.2-6.6,5.4c-2.4,1.2-5.1,1.8-8,1.8c-5.1,0-9.6-1.9-13.2-5.6s-5.5-8.3-5.5-13.6
			c0-5.2,1.8-9.7,5.5-13.5c3.7-3.7,8.1-5.6,13.3-5.6c3,0,5.7,0.6,8.1,1.9c2.4,1.3,4.6,3.2,6.4,5.7v-6.7L266,122.8L266,122.8z
			 M247.3,126.4c-2.6,0-5,0.6-7.2,1.9c-2.2,1.3-4,3.1-5.3,5.4c-1.3,2.3-2,4.8-2,7.4c0,2.6,0.7,5,2,7.4c1.3,2.3,3.1,4.2,5.3,5.5
			c2.2,1.3,4.6,2,7.1,2c2.6,0,5-0.6,7.3-1.9c2.3-1.3,4.1-3,5.3-5.2c1.2-2.2,1.9-4.7,1.9-7.5c0-4.2-1.4-7.7-4.2-10.6
			C254.8,127.8,251.4,126.4,247.3,126.4z"/>
		<path d="M276.5,122.8h4.8v6.3c1.6-2.3,3.3-4,5-5.1c2.4-1.4,4.9-2.1,7.5-2.1c1.8,0,3.4,0.3,5,1s2.9,1.6,3.9,2.8s1.9,2.8,2.6,4.9
			c1.6-2.9,3.5-5,5.9-6.5s4.9-2.2,7.5-2.2c2.5,0,4.7,0.6,6.7,1.9c1.9,1.3,3.4,3.1,4.3,5.3c0.9,2.3,1.4,5.7,1.4,10.2v19.9h-5v-19.9
			c0-3.9-0.3-6.6-0.8-8.1c-0.6-1.5-1.5-2.6-2.9-3.5c-1.3-0.9-3-1.3-4.8-1.3c-2.3,0-4.3,0.7-6.2,2c-1.9,1.3-3.2,3.1-4.1,5.4
			c-0.9,2.2-1.3,6-1.3,11.2v14.3h-4.6v-18.7c0-4.4-0.3-7.4-0.8-9s-1.5-2.8-2.9-3.8c-1.4-0.9-3-1.4-4.9-1.4c-2.2,0-4.2,0.7-6.1,2
			s-3.3,3.1-4.2,5.3c-0.9,2.2-1.4,5.6-1.4,10.1v15.4h-4.6L276.5,122.8L276.5,122.8z"/>
		<path d="M371.6,147.2l4,2.1c-1.3,2.6-2.8,4.6-4.5,6.2c-1.7,1.6-3.6,2.8-5.7,3.6c-2.1,0.8-4.5,1.2-7.2,1.2c-6,0-10.6-1.9-14-5.9
			c-3.4-3.9-5-8.3-5-13.2c0-4.6,1.4-8.7,4.3-12.4c3.6-4.6,8.4-6.9,14.5-6.9c6.2,0,11.2,2.4,14.9,7.1c2.6,3.3,4,7.5,4,12.5H344
			c0.1,4.2,1.4,7.7,4.1,10.4s5.9,4.1,9.7,4.1c1.9,0,3.7-0.3,5.4-1c1.8-0.6,3.2-1.5,4.5-2.6C368.9,151.3,370.2,149.6,371.6,147.2z
			 M371.6,137.3c-0.6-2.5-1.5-4.5-2.7-6c-1.2-1.5-2.8-2.7-4.8-3.6c-2-0.9-4-1.4-6.2-1.4c-3.6,0-6.6,1.2-9.2,3.4
			c-1.9,1.7-3.3,4.2-4.3,7.5L371.6,137.3L371.6,137.3z"/>
		<path d="M380.6,122.8h4.8l11.2,26.5l11.6-26.5h0.9l11.7,26.5l11.4-26.5h4.9l-15.8,36.4h-0.9l-11.7-26.1L397,159.3h-0.9
			L380.6,122.8z"/>
		<path d="M459.8,121.9c5.6,0,10.3,2,14,6.1c3.4,3.7,5,8.1,5,13.2c0,5.1-1.8,9.5-5.3,13.4c-3.5,3.8-8.1,5.7-13.7,5.7
			c-5.6,0-10.2-1.9-13.7-5.7c-3.5-3.8-5.3-8.3-5.3-13.4c0-5.1,1.7-9.4,5-13.1C449.5,123.9,454.2,121.9,459.8,121.9z M459.8,126.5
			c-3.9,0-7.2,1.4-10,4.3c-2.8,2.9-4.2,6.4-4.2,10.4c0,2.6,0.6,5.1,1.9,7.4s3,4,5.2,5.3c2.2,1.2,4.6,1.9,7.2,1.9s5-0.6,7.2-1.9
			s3.9-3,5.2-5.3s1.9-4.7,1.9-7.4c0-4.1-1.4-7.6-4.2-10.4C467,127.9,463.7,126.5,459.8,126.5z"/>
		<path d="M485.7,122.8h4.8v5.3c1.4-2.1,2.9-3.7,4.5-4.7c1.6-1,3.2-1.6,5-1.6c1.3,0,2.7,0.4,4.1,1.2l-2.4,3.9
			c-1-0.4-1.8-0.6-2.5-0.6c-1.6,0-3.1,0.6-4.5,1.9c-1.5,1.3-2.5,3.3-3.3,6c-0.6,2.1-0.9,6.3-0.9,12.6v12.3h-4.8V122.8z"/>
		<path d="M508.1,108.8h4.6v28.7l16.9-14.7h6.9l-20,17.4l21.2,19.1h-6.9l-18.1-16.4v16.4h-4.6L508.1,108.8L508.1,108.8z"/>
	</g>
</g>
<g>
	<path class="st3" d="M136.3,83.9c3.4,0,6.1,2.7,6.1,6.1l0,0c0.1,1.4,0.1,2.5,0.1,3.5c0,7-0.5,13.4-1.6,19.2
		c-1.1,5.8-2.7,10.9-4.9,15.3c-6.4,13.4-14.6,23.3-24.5,29.9s-21.8,9.8-35.8,9.8c-10.2,0-19.6-1.9-28.2-5.6
		c-8.7-3.8-16.2-9.2-22.7-16.3c-6.6-7.4-11.6-15.8-14.9-25.1c-3.3-9.3,15-19.7,15-31.1S6.6,67.5,10,58c3.3-9.5,8.3-17.9,14.9-25.3
		c6.3-7.1,13.8-12.4,22.5-16c8.7-3.6,18.5-5.4,29.2-5.4c12,0,22.5,2.4,31.6,7.3c7.4,4,14.2,9.7,20.2,17.1c2.3,2.8,1.8,6.9-1.1,9
		l-14.3,10.9c-2.9,2.2-7,1.6-9.2-1.2c-2.9-3.9-6.2-7-9.8-9.2c-5.1-3.2-11-4.7-17.8-4.7c-11.3,0-20.2,4.4-26.9,13.3
		c-6.7,8.8,11.9,20.8,11.9,35.7c0,15-18.5,26.9-11.6,35.8s16.1,13.4,27.5,13.4c8.7,0,16-2.7,21.9-8c3.7-3.4,6.3-7.3,7.9-11.7
		c1.4-4.2-1.7-8.5-6.1-8.5H79.7c-3.6,0-6.5-2.9-6.5-6.4V90.3c0-3.5,2.9-6.4,6.5-6.4L136.3,83.9L136.3,83.9z"/>
</g>
<path class="st3" d="M237.5,44.7l-9.1,9c-5.8-6.1-12.5-9.2-20.2-9.2c-6.7,0-12.4,2.2-16.9,6.7c-4.5,4.5-6.8,9.9-6.8,16.2
	c0,6.6,2.4,12.2,7.1,16.8c4.7,4.6,10.5,6.9,17.4,6.9c4.5,0,8.3-0.9,11.4-2.8s5.6-4.8,7.5-8.9h-19.8V67.2h34.3l0.1,2.9
	c0,6-1.6,11.6-4.6,17c-3.1,5.3-7.1,9.4-12,12.2c-4.9,2.8-10.7,4.2-17.3,4.2c-7.1,0-13.4-1.5-19-4.6s-9.9-7.5-13.2-13.2
	c-3.2-5.7-4.9-11.8-4.9-18.4c0-9,3-16.9,9-23.6c7.1-8,16.3-11.9,27.7-11.9c5.9,0,11.5,1.1,16.7,3.3C229,37,233.3,40.2,237.5,44.7z"
	/>
<path class="st3" d="M252.9,51.4h12.7v24.3c0,4.7,0.3,8,1,9.9c0.6,1.8,1.7,3.3,3.1,4.3c1.5,1,3.2,1.5,5.4,1.5s3.9-0.5,5.4-1.5
	c1.5-1,2.6-2.5,3.3-4.4c0.5-1.4,0.8-4.6,0.8-9.3V51.4h12.7v21.4c0,8.8-0.7,14.8-2.1,18.1c-1.7,4-4.2,7-7.5,9.1s-7.5,3.2-12.6,3.2
	c-5.5,0-10-1.2-13.4-3.7s-5.8-5.9-7.2-10.3c-1-3.1-1.5-8.6-1.5-16.7L252.9,51.4L252.9,51.4z"/>
<path class="st3" d="M309.9,51.4h12.7v5.2c2.9-2.4,5.5-4.1,7.8-5s4.7-1.4,7.2-1.4c5,0,9.3,1.8,12.8,5.2c2.9,3,4.4,7.4,4.4,13.2v33.3
	h-12.5V79.8c0-6-0.3-10-0.8-12c-0.5-2-1.5-3.5-2.8-4.5c-1.4-1-3-1.5-5-1.5c-2.6,0-4.8,0.9-6.6,2.6c-1.8,1.7-3.1,4.1-3.8,7.1
	c-0.4,1.6-0.6,5-0.6,10.2v20.3h-12.7L309.9,51.4L309.9,51.4z"/>
<path class="st3" d="M404.2,51.4h12.7v50.5h-12.7v-5.3c-2.5,2.3-5,4-7.5,5.1s-5.2,1.6-8.1,1.6c-6.5,0-12.2-2.5-17-7.6
	c-4.8-5.1-7.2-11.3-7.2-18.9c0-7.8,2.3-14.2,6.9-19.2c4.6-5,10.2-7.5,16.8-7.5c3,0,5.9,0.6,8.5,1.7c2.7,1.1,5.1,2.9,7.4,5.2
	L404.2,51.4L404.2,51.4z M390.9,61.8c-3.9,0-7.2,1.4-9.8,4.1s-3.9,6.3-3.9,10.7c0,4.4,1.3,7.9,4,10.8c2.6,2.8,5.9,4.2,9.7,4.2
	c4,0,7.3-1.4,9.9-4.2c2.6-2.8,3.9-6.4,3.9-10.9c0-4.4-1.3-7.9-3.9-10.7C398.3,63.1,394.9,61.8,390.9,61.8z"/>
<g>
	<path class="st3" d="M176.6,110.1h24.7v4.8h-19.8v15.3h19.8v4.8h-19.8v24.2h-4.9V110.1z"/>
	<path class="st3" d="M207.3,122.8h4.8v5.3c1.4-2.1,2.9-3.7,4.5-4.7c1.6-1,3.2-1.6,4.9-1.6c1.3,0,2.7,0.4,4.1,1.2l-2.4,3.9
		c-1-0.4-1.8-0.6-2.5-0.6c-1.6,0-3.1,0.6-4.5,1.9c-1.4,1.3-2.6,3.3-3.3,6c-0.6,2.1-0.9,6.3-0.9,12.6v12.3h-4.8V122.8z"/>
	<path class="st3" d="M266,122.8v36.4h-4.6V153c-2,2.4-4.2,4.2-6.6,5.4c-2.4,1.2-5.1,1.8-8,1.8c-5.1,0-9.6-1.9-13.2-5.6
		s-5.5-8.3-5.5-13.6c0-5.2,1.8-9.7,5.5-13.5c3.7-3.7,8.1-5.6,13.3-5.6c3,0,5.7,0.6,8.1,1.9c2.4,1.3,4.6,3.2,6.4,5.7v-6.7L266,122.8
		L266,122.8z M247.3,126.4c-2.6,0-5,0.6-7.2,1.9c-2.2,1.3-4,3.1-5.3,5.4c-1.3,2.3-2,4.8-2,7.4c0,2.6,0.7,5,2,7.4
		c1.3,2.3,3.1,4.2,5.3,5.5c2.2,1.3,4.6,2,7.1,2c2.6,0,5-0.6,7.3-1.9c2.3-1.3,4.1-3,5.3-5.2c1.2-2.2,1.9-4.7,1.9-7.5
		c0-4.2-1.4-7.7-4.2-10.6C254.8,127.8,251.4,126.4,247.3,126.4z"/>
	<path class="st3" d="M276.5,122.8h4.8v6.3c1.6-2.3,3.3-4,5-5.1c2.4-1.4,4.9-2.1,7.5-2.1c1.8,0,3.4,0.3,5,1s2.9,1.6,3.9,2.8
		s1.9,2.8,2.6,4.9c1.6-2.9,3.5-5,5.9-6.5s4.9-2.2,7.5-2.2c2.5,0,4.7,0.6,6.7,1.9c1.9,1.3,3.4,3.1,4.3,5.3c0.9,2.3,1.4,5.7,1.4,10.2
		v19.9h-5v-19.9c0-3.9-0.3-6.6-0.8-8.1c-0.6-1.5-1.5-2.6-2.9-3.5c-1.3-0.9-3-1.3-4.8-1.3c-2.3,0-4.3,0.7-6.2,2
		c-1.9,1.3-3.2,3.1-4.1,5.4c-0.9,2.2-1.3,6-1.3,11.2v14.3h-4.6v-18.7c0-4.4-0.3-7.4-0.8-9s-1.5-2.8-2.9-3.8c-1.4-0.9-3-1.4-4.9-1.4
		c-2.2,0-4.2,0.7-6.1,2s-3.3,3.1-4.2,5.3c-0.9,2.2-1.4,5.6-1.4,10.1v15.4h-4.6L276.5,122.8L276.5,122.8z"/>
	<path class="st3" d="M371.6,147.2l4,2.1c-1.3,2.6-2.8,4.6-4.5,6.2c-1.7,1.6-3.6,2.8-5.7,3.6c-2.1,0.8-4.5,1.2-7.2,1.2
		c-6,0-10.6-1.9-14-5.9c-3.4-3.9-5-8.3-5-13.2c0-4.6,1.4-8.7,4.3-12.4c3.6-4.6,8.4-6.9,14.5-6.9c6.2,0,11.2,2.4,14.9,7.1
		c2.6,3.3,4,7.5,4,12.5H344c0.1,4.2,1.4,7.7,4.1,10.4s5.9,4.1,9.7,4.1c1.9,0,3.7-0.3,5.4-1c1.8-0.6,3.2-1.5,4.5-2.6
		C368.9,151.3,370.2,149.6,371.6,147.2z M371.6,137.3c-0.6-2.5-1.5-4.5-2.7-6c-1.2-1.5-2.8-2.7-4.8-3.6c-2-0.9-4-1.4-6.2-1.4
		c-3.6,0-6.6,1.2-9.2,3.4c-1.9,1.7-3.3,4.2-4.3,7.5L371.6,137.3L371.6,137.3z"/>
	<path class="st3" d="M380.6,122.8h4.8l11.2,26.5l11.6-26.5h0.9l11.7,26.5l11.4-26.5h4.9l-15.8,36.4h-0.9l-11.7-26.1L397,159.3h-0.9
		L380.6,122.8z"/>
	<path class="st3" d="M459.8,121.9c5.6,0,10.3,2,14,6.1c3.4,3.7,5,8.1,5,13.2c0,5.1-1.8,9.5-5.3,13.4c-3.5,3.8-8.1,5.7-13.7,5.7
		c-5.6,0-10.2-1.9-13.7-5.7c-3.5-3.8-5.3-8.3-5.3-13.4c0-5.1,1.7-9.4,5-13.1C449.5,123.9,454.2,121.9,459.8,121.9z M459.8,126.5
		c-3.9,0-7.2,1.4-10,4.3c-2.8,2.9-4.2,6.4-4.2,10.4c0,2.6,0.6,5.1,1.9,7.4s3,4,5.2,5.3c2.2,1.2,4.6,1.9,7.2,1.9s5-0.6,7.2-1.9
		s3.9-3,5.2-5.3s1.9-4.7,1.9-7.4c0-4.1-1.4-7.6-4.2-10.4C467,127.9,463.7,126.5,459.8,126.5z"/>
	<path class="st3" d="M485.7,122.8h4.8v5.3c1.4-2.1,2.9-3.7,4.5-4.7c1.6-1,3.2-1.6,5-1.6c1.3,0,2.7,0.4,4.1,1.2l-2.4,3.9
		c-1-0.4-1.8-0.6-2.5-0.6c-1.6,0-3.1,0.6-4.5,1.9c-1.5,1.3-2.5,3.3-3.3,6c-0.6,2.1-0.9,6.3-0.9,12.6v12.3h-4.8V122.8z"/>
	<path class="st3" d="M508.1,108.8h4.6v28.7l16.9-14.7h6.9l-20,17.4l21.2,19.1h-6.9l-18.1-16.4v16.4h-4.6L508.1,108.8L508.1,108.8z"
		/>
</g>
<g>
	<path class="st3" d="M176.6,110.3h24.7v4.8h-19.8v15.3h19.8v4.8h-19.8v24.2h-4.9V110.3z"/>
	<path class="st3" d="M207.3,123h4.8v5.3c1.4-2.1,2.9-3.7,4.5-4.7c1.6-1,3.2-1.6,4.9-1.6c1.3,0,2.7,0.4,4.1,1.2l-2.4,3.9
		c-1-0.4-1.8-0.6-2.5-0.6c-1.6,0-3.1,0.6-4.5,1.9c-1.4,1.3-2.6,3.3-3.3,6c-0.6,2.1-0.9,6.3-0.9,12.6v12.3h-4.8V123z"/>
	<path class="st3" d="M266,123v36.5h-4.6v-6.3c-2,2.4-4.2,4.2-6.6,5.4c-2.4,1.2-5.1,1.8-8,1.8c-5.1,0-9.6-1.9-13.2-5.6
		s-5.5-8.3-5.5-13.6c0-5.2,1.8-9.7,5.5-13.5c3.7-3.7,8.1-5.6,13.3-5.6c3,0,5.7,0.6,8.1,1.9c2.4,1.3,4.6,3.2,6.4,5.7V123L266,123
		L266,123z M247.3,126.6c-2.6,0-5,0.6-7.2,1.9c-2.2,1.3-4,3.1-5.3,5.4c-1.3,2.3-2,4.8-2,7.4c0,2.6,0.7,5,2,7.4
		c1.3,2.3,3.1,4.2,5.3,5.5c2.2,1.3,4.6,2,7.1,2c2.6,0,5-0.6,7.3-1.9c2.3-1.3,4.1-3,5.3-5.2c1.2-2.2,1.9-4.7,1.9-7.5
		c0-4.2-1.4-7.7-4.2-10.6C254.8,128,251.4,126.6,247.3,126.6z"/>
	<path class="st3" d="M276.5,123h4.8v6.3c1.6-2.3,3.3-4,5-5.1c2.4-1.4,4.9-2.1,7.5-2.1c1.8,0,3.4,0.3,5,1s2.9,1.6,3.9,2.8
		s1.9,2.8,2.6,4.9c1.6-2.9,3.5-5,5.9-6.5s4.9-2.2,7.5-2.2c2.5,0,4.7,0.6,6.7,1.9c1.9,1.3,3.4,3.1,4.3,5.3c0.9,2.3,1.4,5.7,1.4,10.2
		v19.9h-5v-19.9c0-3.9-0.3-6.6-0.8-8.1c-0.6-1.5-1.5-2.6-2.9-3.5c-1.3-0.9-3-1.3-4.8-1.3c-2.3,0-4.3,0.7-6.2,2
		c-1.9,1.3-3.2,3.1-4.1,5.4c-0.9,2.2-1.3,6-1.3,11.2v14.3h-4.6v-18.7c0-4.4-0.3-7.4-0.8-9s-1.5-2.8-2.9-3.8s-3-1.4-4.9-1.4
		c-2.2,0-4.2,0.7-6.1,2c-1.9,1.3-3.3,3.1-4.2,5.3c-0.9,2.2-1.4,5.6-1.4,10.1v15.4h-4.6L276.5,123L276.5,123z"/>
	<path class="st3" d="M371.6,147.4l4,2.1c-1.3,2.6-2.8,4.6-4.5,6.2c-1.7,1.6-3.6,2.8-5.7,3.6c-2.1,0.8-4.5,1.2-7.2,1.2
		c-6,0-10.6-1.9-14-5.9c-3.4-3.9-5-8.3-5-13.2c0-4.6,1.4-8.7,4.3-12.4c3.6-4.6,8.4-6.9,14.5-6.9c6.2,0,11.2,2.4,14.9,7.1
		c2.6,3.3,4,7.5,4,12.5H344c0.1,4.2,1.4,7.7,4.1,10.4s5.9,4.1,9.7,4.1c1.9,0,3.7-0.3,5.4-1c1.8-0.6,3.2-1.5,4.5-2.6
		C368.9,151.5,370.2,149.8,371.6,147.4z M371.6,137.5c-0.6-2.5-1.5-4.5-2.7-6c-1.2-1.5-2.8-2.7-4.8-3.6c-2-0.9-4-1.4-6.2-1.4
		c-3.6,0-6.6,1.2-9.2,3.4c-1.9,1.7-3.3,4.2-4.3,7.5L371.6,137.5L371.6,137.5z"/>
	<path class="st3" d="M380.6,123h4.8l11.2,26.5l11.6-26.5h0.9l11.7,26.5l11.4-26.5h4.9l-15.8,36.4h-0.9l-11.7-26.1L397,159.4h-0.9
		L380.6,123z"/>
	<path class="st3" d="M459.8,122.1c5.6,0,10.3,2,14,6.1c3.4,3.7,5,8.1,5,13.2c0,5.1-1.8,9.5-5.3,13.4c-3.5,3.8-8.1,5.7-13.7,5.7
		c-5.6,0-10.2-1.9-13.7-5.7c-3.5-3.8-5.3-8.3-5.3-13.4c0-5.1,1.7-9.4,5-13.1C449.5,124.1,454.2,122.1,459.8,122.1z M459.8,126.7
		c-3.9,0-7.2,1.4-10,4.3s-4.2,6.4-4.2,10.4c0,2.6,0.6,5.1,1.9,7.4s3,4,5.2,5.3c2.2,1.2,4.6,1.9,7.2,1.9s5-0.6,7.2-1.9s3.9-3,5.2-5.3
		s1.9-4.7,1.9-7.4c0-4.1-1.4-7.6-4.2-10.4C467,128.1,463.7,126.7,459.8,126.7z"/>
	<path class="st3" d="M485.7,123h4.8v5.3c1.4-2.1,2.9-3.7,4.5-4.7c1.6-1,3.2-1.6,5-1.6c1.3,0,2.7,0.4,4.1,1.2l-2.4,3.9
		c-1-0.4-1.8-0.6-2.5-0.6c-1.6,0-3.1,0.6-4.5,1.9c-1.5,1.3-2.5,3.3-3.3,6c-0.6,2.1-0.9,6.3-0.9,12.6v12.3h-4.8V123z"/>
	<path class="st3" d="M508.1,109h4.6v28.7l16.9-14.7h6.9l-20,17.4l21.2,19.1h-6.9L512.7,143v16.4h-4.6L508.1,109L508.1,109z"/>
</g>
<g id="Layer_3" class="st0">
	<g class="st1">
		<path class="st4" d="M136.3,83.9c3.4,0,6.1,2.7,6.1,6.1l0,0c0.1,1.4,0.1,2.5,0.1,3.5c0,7-0.5,13.4-1.6,19.2
			c-1.1,5.8-2.7,10.9-4.9,15.3c-6.4,13.4-14.6,23.3-24.5,29.9s-21.8,9.8-35.8,9.8c-10.2,0-19.6-1.9-28.2-5.6
			c-8.7-3.8-16.2-9.2-22.7-16.3c-6.6-7.4-11.6-15.8-14.9-25.1c-3.3-9.3,15-19.7,15-31.1S6.6,67.5,10,58c3.3-9.5,8.3-17.9,14.9-25.3
			c6.3-7.1,13.8-12.4,22.5-16c8.7-3.6,18.5-5.4,29.2-5.4c12,0,22.5,2.4,31.6,7.3c7.4,4,14.2,9.7,20.2,17.1c2.3,2.8,1.8,6.9-1.1,9
			l-14.3,10.9c-2.9,2.2-7,1.6-9.2-1.2c-2.9-3.9-6.2-7-9.8-9.2c-5.1-3.2-11-4.7-17.8-4.7c-11.3,0-20.2,4.4-26.9,13.3
			c-6.7,8.8,11.9,20.8,11.9,35.7c0,15-18.5,26.9-11.6,35.8s16.1,13.4,27.5,13.4c8.7,0,16-2.7,21.9-8c3.7-3.4,6.3-7.3,7.9-11.7
			c1.4-4.2-1.7-8.5-6.1-8.5H79.7c-3.6,0-6.5-2.9-6.5-6.4V90.3c0-3.5,2.9-6.4,6.5-6.4L136.3,83.9L136.3,83.9z"/>
	</g>
	<g class="st1">
		<path class="st4" d="M237.5,44.7l-9.1,9c-5.8-6.1-12.5-9.2-20.2-9.2c-6.7,0-12.4,2.2-16.9,6.7c-4.5,4.5-6.8,9.9-6.8,16.2
			c0,6.6,2.4,12.2,7.1,16.8c4.7,4.6,10.5,6.9,17.4,6.9c4.5,0,8.3-0.9,11.4-2.8s5.6-4.8,7.5-8.9h-19.8V67.2h34.3l0.1,2.9
			c0,6-1.6,11.6-4.6,17c-3.1,5.3-7.1,9.4-12,12.2c-4.9,2.8-10.7,4.2-17.3,4.2c-7.1,0-13.4-1.5-19-4.6s-9.9-7.5-13.2-13.2
			c-3.2-5.7-4.9-11.8-4.9-18.4c0-9,3-16.9,9-23.6c7.1-8,16.3-11.9,27.7-11.9c5.9,0,11.5,1.1,16.7,3.3C229,37,233.3,40.2,237.5,44.7z
			"/>
		<path class="st4" d="M252.9,51.4h12.7v24.3c0,4.7,0.3,8,1,9.9c0.6,1.8,1.7,3.3,3.1,4.3c1.5,1,3.2,1.5,5.4,1.5s3.9-0.5,5.4-1.5
			c1.5-1,2.6-2.5,3.3-4.4c0.5-1.4,0.8-4.6,0.8-9.3V51.4h12.7v21.4c0,8.8-0.7,14.8-2.1,18.1c-1.7,4-4.2,7-7.5,9.1s-7.5,3.2-12.6,3.2
			c-5.5,0-10-1.2-13.4-3.7s-5.8-5.9-7.2-10.3c-1-3.1-1.5-8.6-1.5-16.7L252.9,51.4L252.9,51.4z"/>
		<path class="st4" d="M309.9,51.4h12.7v5.2c2.9-2.4,5.5-4.1,7.8-5s4.7-1.4,7.2-1.4c5,0,9.3,1.8,12.8,5.2c2.9,3,4.4,7.4,4.4,13.2
			v33.3h-12.5V79.8c0-6-0.3-10-0.8-12c-0.5-2-1.5-3.5-2.8-4.5c-1.4-1-3-1.5-5-1.5c-2.6,0-4.8,0.9-6.6,2.6c-1.8,1.7-3.1,4.1-3.8,7.1
			c-0.4,1.6-0.6,5-0.6,10.2v20.3h-12.7L309.9,51.4L309.9,51.4z"/>
		<path class="st4" d="M404.2,51.4h12.7v50.5h-12.7v-5.3c-2.5,2.3-5,4-7.5,5.1s-5.2,1.6-8.1,1.6c-6.5,0-12.2-2.5-17-7.6
			c-4.8-5.1-7.2-11.3-7.2-18.9c0-7.8,2.3-14.2,6.9-19.2c4.6-5,10.2-7.5,16.8-7.5c3,0,5.9,0.6,8.5,1.7c2.7,1.1,5.1,2.9,7.4,5.2
			L404.2,51.4L404.2,51.4z M390.9,61.8c-3.9,0-7.2,1.4-9.8,4.1s-3.9,6.3-3.9,10.7c0,4.4,1.3,7.9,4,10.8c2.6,2.8,5.9,4.2,9.7,4.2
			c4,0,7.3-1.4,9.9-4.2c2.6-2.8,3.9-6.4,3.9-10.9c0-4.4-1.3-7.9-3.9-10.7C398.3,63.1,394.9,61.8,390.9,61.8z"/>
		<path class="st4" d="M430.6,33.6h13v44.1c0,3.8,0.3,6.5,1,8.1c0.7,1.6,1.8,2.8,3.3,3.8s3.4,1.4,5.5,1.4c2.3,0,4.3-0.5,5.9-1.6
			c1.6-1.1,2.8-2.4,3.4-4s1-4.7,1-9.3V33.6h13v40.7c0,6.9-0.4,11.6-1.2,14.3s-2.2,5.2-4.4,7.7c-2.2,2.5-4.7,4.3-7.5,5.5
			c-2.8,1.2-6.1,1.8-9.9,1.8c-5,0-9.2-1.1-12.9-3.4c-3.7-2.3-6.3-5.1-7.9-8.5s-2.4-9.2-2.4-17.3L430.6,33.6L430.6,33.6z"/>
		<path class="st4" d="M491,33.6h12.9v68.3H491V33.6z"/>
	</g>
	<g class="st1">
		<path class="st5" d="M176.6,110.1h24.7v4.8h-19.8v15.3h19.8v4.8h-19.8v24.2h-4.9V110.1z"/>
		<path class="st5" d="M207.3,122.8h4.8v5.3c1.4-2.1,2.9-3.7,4.5-4.7c1.6-1,3.2-1.6,4.9-1.6c1.3,0,2.7,0.4,4.1,1.2l-2.4,3.9
			c-1-0.4-1.8-0.6-2.5-0.6c-1.6,0-3.1,0.6-4.5,1.9c-1.4,1.3-2.6,3.3-3.3,6c-0.6,2.1-0.9,6.3-0.9,12.6v12.3h-4.8V122.8z"/>
		<path class="st5" d="M266,122.8v36.4h-4.6V153c-2,2.4-4.2,4.2-6.6,5.4c-2.4,1.2-5.1,1.8-8,1.8c-5.1,0-9.6-1.9-13.2-5.6
			s-5.5-8.3-5.5-13.6c0-5.2,1.8-9.7,5.5-13.5c3.7-3.7,8.1-5.6,13.3-5.6c3,0,5.7,0.6,8.1,1.9c2.4,1.3,4.6,3.2,6.4,5.7v-6.7L266,122.8
			L266,122.8z M247.3,126.4c-2.6,0-5,0.6-7.2,1.9c-2.2,1.3-4,3.1-5.3,5.4c-1.3,2.3-2,4.8-2,7.4c0,2.6,0.7,5,2,7.4
			c1.3,2.3,3.1,4.2,5.3,5.5c2.2,1.3,4.6,2,7.1,2c2.6,0,5-0.6,7.3-1.9c2.3-1.3,4.1-3,5.3-5.2c1.2-2.2,1.9-4.7,1.9-7.5
			c0-4.2-1.4-7.7-4.2-10.6C254.8,127.8,251.4,126.4,247.3,126.4z"/>
		<path class="st5" d="M276.5,122.8h4.8v6.3c1.6-2.3,3.3-4,5-5.1c2.4-1.4,4.9-2.1,7.5-2.1c1.8,0,3.4,0.3,5,1s2.9,1.6,3.9,2.8
			s1.9,2.8,2.6,4.9c1.6-2.9,3.5-5,5.9-6.5s4.9-2.2,7.5-2.2c2.5,0,4.7,0.6,6.7,1.9c1.9,1.3,3.4,3.1,4.3,5.3c0.9,2.3,1.4,5.7,1.4,10.2
			v19.9h-5v-19.9c0-3.9-0.3-6.6-0.8-8.1c-0.6-1.5-1.5-2.6-2.9-3.5c-1.3-0.9-3-1.3-4.8-1.3c-2.3,0-4.3,0.7-6.2,2
			c-1.9,1.3-3.2,3.1-4.1,5.4c-0.9,2.2-1.3,6-1.3,11.2v14.3h-4.6v-18.7c0-4.4-0.3-7.4-0.8-9s-1.5-2.8-2.9-3.8c-1.4-0.9-3-1.4-4.9-1.4
			c-2.2,0-4.2,0.7-6.1,2s-3.3,3.1-4.2,5.3c-0.9,2.2-1.4,5.6-1.4,10.1v15.4h-4.6L276.5,122.8L276.5,122.8z"/>
		<path class="st5" d="M371.6,147.2l4,2.1c-1.3,2.6-2.8,4.6-4.5,6.2c-1.7,1.6-3.6,2.8-5.7,3.6c-2.1,0.8-4.5,1.2-7.2,1.2
			c-6,0-10.6-1.9-14-5.9c-3.4-3.9-5-8.3-5-13.2c0-4.6,1.4-8.7,4.3-12.4c3.6-4.6,8.4-6.9,14.5-6.9c6.2,0,11.2,2.4,14.9,7.1
			c2.6,3.3,4,7.5,4,12.5H344c0.1,4.2,1.4,7.7,4.1,10.4s5.9,4.1,9.7,4.1c1.9,0,3.7-0.3,5.4-1c1.8-0.6,3.2-1.5,4.5-2.6
			C368.9,151.3,370.2,149.6,371.6,147.2z M371.6,137.3c-0.6-2.5-1.5-4.5-2.7-6c-1.2-1.5-2.8-2.7-4.8-3.6c-2-0.9-4-1.4-6.2-1.4
			c-3.6,0-6.6,1.2-9.2,3.4c-1.9,1.7-3.3,4.2-4.3,7.5L371.6,137.3L371.6,137.3z"/>
		<path class="st5" d="M380.6,122.8h4.8l11.2,26.5l11.6-26.5h0.9l11.7,26.5l11.4-26.5h4.9l-15.8,36.4h-0.9l-11.7-26.1L397,159.3
			h-0.9L380.6,122.8z"/>
		<path class="st5" d="M459.8,121.9c5.6,0,10.3,2,14,6.1c3.4,3.7,5,8.1,5,13.2c0,5.1-1.8,9.5-5.3,13.4c-3.5,3.8-8.1,5.7-13.7,5.7
			c-5.6,0-10.2-1.9-13.7-5.7c-3.5-3.8-5.3-8.3-5.3-13.4c0-5.1,1.7-9.4,5-13.1C449.5,123.9,454.2,121.9,459.8,121.9z M459.8,126.5
			c-3.9,0-7.2,1.4-10,4.3c-2.8,2.9-4.2,6.4-4.2,10.4c0,2.6,0.6,5.1,1.9,7.4s3,4,5.2,5.3c2.2,1.2,4.6,1.9,7.2,1.9s5-0.6,7.2-1.9
			s3.9-3,5.2-5.3s1.9-4.7,1.9-7.4c0-4.1-1.4-7.6-4.2-10.4C467,127.9,463.7,126.5,459.8,126.5z"/>
		<path class="st5" d="M485.7,122.8h4.8v5.3c1.4-2.1,2.9-3.7,4.5-4.7c1.6-1,3.2-1.6,5-1.6c1.3,0,2.7,0.4,4.1,1.2l-2.4,3.9
			c-1-0.4-1.8-0.6-2.5-0.6c-1.6,0-3.1,0.6-4.5,1.9c-1.5,1.3-2.5,3.3-3.3,6c-0.6,2.1-0.9,6.3-0.9,12.6v12.3h-4.8V122.8z"/>
		<path class="st5" d="M508.1,108.8h4.6v28.7l16.9-14.7h6.9l-20,17.4l21.2,19.1h-6.9l-18.1-16.4v16.4h-4.6L508.1,108.8L508.1,108.8z
			"/>
	</g>
	<g class="st1">
		<path class="st5" d="M176.6,110.3h24.7v4.8h-19.8v15.3h19.8v4.8h-19.8v24.2h-4.9V110.3z"/>
		<path class="st5" d="M207.3,123h4.8v5.3c1.4-2.1,2.9-3.7,4.5-4.7c1.6-1,3.2-1.6,4.9-1.6c1.3,0,2.7,0.4,4.1,1.2l-2.4,3.9
			c-1-0.4-1.8-0.6-2.5-0.6c-1.6,0-3.1,0.6-4.5,1.9c-1.4,1.3-2.6,3.3-3.3,6c-0.6,2.1-0.9,6.3-0.9,12.6v12.3h-4.8V123z"/>
		<path class="st5" d="M266,123v36.5h-4.6v-6.3c-2,2.4-4.2,4.2-6.6,5.4c-2.4,1.2-5.1,1.8-8,1.8c-5.1,0-9.6-1.9-13.2-5.6
			s-5.5-8.3-5.5-13.6c0-5.2,1.8-9.7,5.5-13.5c3.7-3.7,8.1-5.6,13.3-5.6c3,0,5.7,0.6,8.1,1.9c2.4,1.3,4.6,3.2,6.4,5.7V123L266,123
			L266,123z M247.3,126.6c-2.6,0-5,0.6-7.2,1.9c-2.2,1.3-4,3.1-5.3,5.4c-1.3,2.3-2,4.8-2,7.4c0,2.6,0.7,5,2,7.4
			c1.3,2.3,3.1,4.2,5.3,5.5c2.2,1.3,4.6,2,7.1,2c2.6,0,5-0.6,7.3-1.9c2.3-1.3,4.1-3,5.3-5.2c1.2-2.2,1.9-4.7,1.9-7.5
			c0-4.2-1.4-7.7-4.2-10.6C254.8,128,251.4,126.6,247.3,126.6z"/>
		<path class="st5" d="M276.5,123h4.8v6.3c1.6-2.3,3.3-4,5-5.1c2.4-1.4,4.9-2.1,7.5-2.1c1.8,0,3.4,0.3,5,1s2.9,1.6,3.9,2.8
			s1.9,2.8,2.6,4.9c1.6-2.9,3.5-5,5.9-6.5s4.9-2.2,7.5-2.2c2.5,0,4.7,0.6,6.7,1.9c1.9,1.3,3.4,3.1,4.3,5.3c0.9,2.3,1.4,5.7,1.4,10.2
			v19.9h-5v-19.9c0-3.9-0.3-6.6-0.8-8.1c-0.6-1.5-1.5-2.6-2.9-3.5c-1.3-0.9-3-1.3-4.8-1.3c-2.3,0-4.3,0.7-6.2,2
			c-1.9,1.3-3.2,3.1-4.1,5.4c-0.9,2.2-1.3,6-1.3,11.2v14.3h-4.6v-18.7c0-4.4-0.3-7.4-0.8-9s-1.5-2.8-2.9-3.8s-3-1.4-4.9-1.4
			c-2.2,0-4.2,0.7-6.1,2c-1.9,1.3-3.3,3.1-4.2,5.3c-0.9,2.2-1.4,5.6-1.4,10.1v15.4h-4.6L276.5,123L276.5,123z"/>
		<path class="st5" d="M371.6,147.4l4,2.1c-1.3,2.6-2.8,4.6-4.5,6.2c-1.7,1.6-3.6,2.8-5.7,3.6c-2.1,0.8-4.5,1.2-7.2,1.2
			c-6,0-10.6-1.9-14-5.9c-3.4-3.9-5-8.3-5-13.2c0-4.6,1.4-8.7,4.3-12.4c3.6-4.6,8.4-6.9,14.5-6.9c6.2,0,11.2,2.4,14.9,7.1
			c2.6,3.3,4,7.5,4,12.5H344c0.1,4.2,1.4,7.7,4.1,10.4s5.9,4.1,9.7,4.1c1.9,0,3.7-0.3,5.4-1c1.8-0.6,3.2-1.5,4.5-2.6
			C368.9,151.5,370.2,149.8,371.6,147.4z M371.6,137.5c-0.6-2.5-1.5-4.5-2.7-6c-1.2-1.5-2.8-2.7-4.8-3.6c-2-0.9-4-1.4-6.2-1.4
			c-3.6,0-6.6,1.2-9.2,3.4c-1.9,1.7-3.3,4.2-4.3,7.5L371.6,137.5L371.6,137.5z"/>
		<path class="st5" d="M380.6,123h4.8l11.2,26.5l11.6-26.5h0.9l11.7,26.5l11.4-26.5h4.9l-15.8,36.4h-0.9l-11.7-26.1L397,159.4h-0.9
			L380.6,123z"/>
		<path class="st5" d="M459.8,122.1c5.6,0,10.3,2,14,6.1c3.4,3.7,5,8.1,5,13.2c0,5.1-1.8,9.5-5.3,13.4c-3.5,3.8-8.1,5.7-13.7,5.7
			c-5.6,0-10.2-1.9-13.7-5.7c-3.5-3.8-5.3-8.3-5.3-13.4c0-5.1,1.7-9.4,5-13.1C449.5,124.1,454.2,122.1,459.8,122.1z M459.8,126.7
			c-3.9,0-7.2,1.4-10,4.3s-4.2,6.4-4.2,10.4c0,2.6,0.6,5.1,1.9,7.4s3,4,5.2,5.3c2.2,1.2,4.6,1.9,7.2,1.9s5-0.6,7.2-1.9
			s3.9-3,5.2-5.3s1.9-4.7,1.9-7.4c0-4.1-1.4-7.6-4.2-10.4C467,128.1,463.7,126.7,459.8,126.7z"/>
		<path class="st5" d="M485.7,123h4.8v5.3c1.4-2.1,2.9-3.7,4.5-4.7c1.6-1,3.2-1.6,5-1.6c1.3,0,2.7,0.4,4.1,1.2l-2.4,3.9
			c-1-0.4-1.8-0.6-2.5-0.6c-1.6,0-3.1,0.6-4.5,1.9c-1.5,1.3-2.5,3.3-3.3,6c-0.6,2.1-0.9,6.3-0.9,12.6v12.3h-4.8V123z"/>
		<path class="st5" d="M508.1,109h4.6v28.7l16.9-14.7h6.9l-20,17.4l21.2,19.1h-6.9L512.7,143v16.4h-4.6L508.1,109L508.1,109z"/>
	</g>
</g>
</svg>
